<svg preserveAspectRatio="none" width="100%" height="100%" overflow="visible" style="display: block;" viewBox="0 0 1235.23 387.414" fill="none" xmlns="http://www.w3.org/2000/svg">
<g id="Vector" opacity="0.04">
<path d="M15.2244 81.6634C11.3601 82.3216 7.89217 81.081 4.84531 77.9669C1.79846 74.8527 0.213102 71.2828 0.014933 67.3078C-0.158465 63.0796 1.17918 59.6616 3.97832 57.0538C6.77747 54.1929 10.1216 52.4459 14.0107 51.7876C26.1485 50.2685 38.1626 49.3064 50.1023 48.8C62.0172 48.2937 74.0808 48.1924 86.2682 48.4203C89.6371 47.0531 93.3032 47.1543 97.2418 48.7241C119.957 49.5343 142.945 51.5597 166.205 54.8511C170.143 55.4335 173.141 57.6868 175.246 61.5858C177.352 65.4849 177.872 69.1814 176.782 72.726C175.742 77.0048 173.537 80.0683 170.193 81.9672C167.097 83.5876 163.455 84.2205 159.294 83.9167C149.98 82.5495 140.79 81.4355 131.748 80.5493C122.682 79.6632 113.541 79.0556 104.252 78.6758C101.527 96.2468 100.165 113.717 100.115 131.161C100.313 148.58 101.626 166.227 104.004 184.051C106.432 202.382 109.578 220.56 113.467 238.587C117.331 256.361 121.319 274.261 125.456 292.287C126.348 296.465 126.026 300.364 124.465 303.934C123.128 307.225 120.428 309.58 116.316 310.998C112.699 312.39 108.909 312.162 104.946 310.339C101.23 308.491 98.9015 305.605 98.0097 301.655C93.3032 281.654 88.7701 261.931 84.3608 242.435C80.1745 222.687 76.8304 202.761 74.3285 182.684C72.1734 165.088 71.1082 147.567 71.1578 130.123C71.2073 112.678 72.4707 95.3353 74.9478 78.0428C54.9574 78.1188 35.0166 79.3087 15.1254 81.6127H15.1997L15.2244 81.6634Z" fill="url(#paint0_linear_0_32)"/>
<path d="M249.659 130.655C257.413 129.338 265.538 128.756 274.084 128.908C282.605 128.806 290.829 129.971 298.706 132.376C306.583 134.528 313.792 138.098 320.331 143.086C326.846 148.023 331.999 154.682 335.739 162.986C338.414 168.835 339.876 174.886 340.124 181.114C340.594 187.064 339.975 192.963 338.266 198.761C336.779 204.306 334.302 209.749 330.859 215.117C327.639 220.231 323.824 224.991 319.365 229.422C309.754 239.043 299.127 247.322 287.435 254.285C275.768 261.247 263.432 266.716 250.427 270.741C244.878 272.463 239.107 274.084 233.063 275.577C227.241 276.818 221.321 277.552 215.252 277.805C209.183 278.059 203.188 277.679 197.318 276.666C191.422 275.425 185.849 273.273 180.597 270.26C176.857 268.184 174.553 265.273 173.661 261.576C172.026 257.399 170.292 253.5 168.434 249.828C166.577 246.157 164.744 242.385 162.861 238.486C161.251 234.561 159.864 230.637 158.749 226.713C157.609 222.763 156.965 218.687 156.792 214.459C156.445 206.002 157.857 197.976 160.978 190.381C164.322 182.532 168.93 175.595 174.776 169.62C184.585 159.239 196.104 150.808 209.233 144.276C222.361 137.769 235.862 133.212 249.634 130.655V130.604L249.659 130.655ZM292.191 161.062C285.528 158.834 278.419 157.897 270.863 158.201C262.837 158.302 254.812 159.467 246.885 161.796C238.933 163.872 231.353 166.683 224.194 170.202C217.481 173.215 210.57 177.367 203.461 182.633C196.575 187.646 191.596 193.723 188.45 200.812C186.641 204.61 185.824 208.534 185.997 212.509C186.394 216.231 187.137 220.079 188.276 224.004C189.639 227.7 191.249 231.498 193.107 235.397C195.187 239.043 197.045 242.714 198.655 246.385C202.594 247.221 205.022 247.6 206.012 247.575C206.508 247.803 207.127 247.904 207.845 247.879L209.678 247.803C214.558 248.107 218.943 247.803 222.807 246.892C225.483 246.765 228.851 246.132 232.963 244.967C239.255 243.448 245.275 241.6 251.022 239.372C256.769 236.891 262.045 234.308 266.801 231.625C272.3 228.662 277.651 225.447 282.877 222.003C288.104 218.56 292.489 215.016 296.006 211.37C298.335 209.015 300.589 206.559 302.67 204.002C303.834 202.711 304.651 201.673 305.122 200.913C306.261 199.141 307.203 197.824 307.896 197.039C308.59 196.001 309.135 194.887 309.605 193.622C310.522 191.824 310.943 190.457 310.894 189.469C311.117 188.963 311.216 188.33 311.191 187.596C311.389 186.836 311.637 186.203 311.86 185.697L311.686 181.595C311.414 180.608 311.265 179.874 311.24 179.367C311.24 178.861 311.092 178.38 310.819 177.899C310.027 176.202 309.259 174.962 308.491 174.253C307.971 173.291 307.327 172.303 306.559 171.341C306.806 171.569 306.435 171.215 305.444 170.253C304.676 169.29 304.156 168.683 303.908 168.455L300.861 165.569C299.598 164.86 298.26 164.075 296.749 163.138C295.238 162.201 293.777 161.518 292.29 161.087H292.191V161.062Z" fill="url(#paint1_linear_0_32)"/>
<path d="M392.935 316.112C384.512 312.745 377.75 307.909 372.622 301.63C367.717 295.098 364.15 287.882 361.896 280.033C359.89 272.159 359.072 263.956 359.469 255.474C359.865 246.74 361.227 238.334 363.581 230.257C365.513 223.953 367.717 217.37 370.12 210.56C372.796 203.724 375.942 197.369 379.608 191.495C383.274 185.621 387.708 180.557 392.91 176.38C398.087 171.949 404.329 168.936 411.562 167.392C419.068 165.847 426.574 165.164 434.154 165.341C441.957 165.265 449.636 165.695 457.216 166.632C460.634 166.987 463.954 167.746 467.174 168.835C470.394 169.696 473.59 170.683 476.785 171.797C476.884 168.05 478.346 164.885 481.17 162.277C484.216 159.669 487.461 158.277 490.88 158.125C495.017 157.948 498.361 159.315 500.912 162.176C503.711 164.784 505.42 168.075 506.065 172.05C507.724 183.443 508.666 194.837 508.864 206.331C509.31 217.775 509.409 229.219 509.111 240.688C509.062 252.158 509.037 263.602 509.012 275.071C509.21 286.515 509.78 297.934 510.721 309.377C511.167 314.087 509.855 317.758 506.758 320.366C503.934 322.746 500.689 323.986 497.023 324.138C493.357 324.29 489.914 323.303 486.669 321.201C483.647 318.821 481.937 315.277 481.516 310.567C467.892 317.1 453.277 321.201 437.746 322.847C422.189 324.239 407.227 321.986 392.86 316.087L392.935 316.112ZM392.29 235.042C391.027 239.574 389.863 244.739 388.872 250.487C387.881 256.234 387.733 261.728 388.401 266.944C389.095 272.134 390.879 276.919 393.727 281.299C396.576 285.426 401.059 288.211 407.228 289.705C419.787 293.174 432.246 293.781 444.582 291.528C457.166 289.275 468.784 284.312 479.46 276.641C479.956 264.412 480.228 252.563 480.253 241.094C480.525 229.624 480.327 218.054 479.609 206.382C475.348 203.825 471.013 201.622 466.554 199.825C462.319 197.774 457.662 196.457 452.509 195.925C447.357 195.394 441.858 195.115 436.012 195.115C430.389 194.837 424.914 195.065 419.588 195.774C419.093 195.774 417.78 196.229 415.6 197.065C413.693 197.647 412.578 198.052 412.355 198.305C409.952 199.647 407.847 201.749 406.039 204.559C403.066 209.167 400.44 214.129 398.211 219.446C395.957 224.535 394 229.726 392.241 235.017L392.29 235.068V235.042Z" fill="url(#paint2_linear_0_32)"/>
<path d="M559.051 196.66C552.536 192.204 547.804 186.532 544.857 179.671C541.909 172.557 541.488 164.986 543.593 156.935C545.748 149.618 549.241 143.01 554.146 137.085C559.026 131.161 564.698 126.325 571.139 122.553C578.273 118.274 585.952 114.856 594.127 112.248C602.301 109.666 610.649 108.096 619.17 107.463C627.667 106.881 636.114 107.387 644.462 109.033C653.032 110.425 661.182 112.957 668.886 116.628C673.122 118.679 675.525 121.591 676.194 125.287C676.862 128.984 676.218 132.503 674.435 135.819C672.849 139.111 670.273 141.592 666.681 143.238C663.09 144.883 659.176 144.656 654.94 142.605C648.995 139.617 642.306 137.769 634.974 137.06C627.617 136.351 620.211 136.655 612.705 137.972C605.422 139.01 598.561 141.162 592.145 144.428C585.68 147.694 580.379 151.77 576.192 156.682C575.028 157.973 574.211 158.885 573.74 159.416C573.517 159.923 573.071 161.062 572.402 162.834L571.832 166.986C572.65 169.189 573.319 170.531 573.814 171.012C578.793 174.05 583.871 175.949 589.024 176.734C594.399 177.266 599.799 177.544 605.15 177.57C612.705 177.747 620.409 177.924 628.212 178.101C636.238 178 643.966 178.684 651.323 180.127C658.928 181.545 665.988 184.127 672.453 187.849C678.943 191.545 684.517 197.191 689.198 204.711C694.425 213.218 696.952 222.206 696.853 231.675C696.976 240.891 693.781 249.347 687.266 257.095C680.751 264.842 673.047 270.362 664.155 273.754C655.262 276.843 646.22 279.223 637.005 280.869C628.757 282.211 620.136 282.818 611.12 282.666C602.351 282.54 593.78 281.401 585.407 279.223C577.282 277.324 569.628 274.159 562.37 269.729C555.112 265.045 549.043 258.816 544.089 251.044C541.735 247.17 541.24 243.423 542.553 239.904C543.866 236.131 545.947 233.295 548.795 231.422C551.867 229.321 555.261 228.409 558.927 228.763C562.841 229.093 566.086 231.219 568.687 235.093C572.303 240.663 577.233 244.841 583.45 247.575C589.668 250.309 596.306 252.158 603.416 253.12C610.773 253.803 618.08 253.778 625.338 252.968C632.621 251.93 639.136 250.639 644.932 249.17C648.053 248.309 651.199 247.17 654.321 245.803C657.665 244.182 660.414 242.309 662.52 240.233C664.873 238.131 666.483 235.827 667.375 233.321C668.242 230.536 667.994 227.548 666.657 224.383C663.981 218.282 659.646 213.952 653.726 211.471C648.004 208.964 642.009 207.597 635.643 207.344C629.302 207.116 622.836 207.116 616.272 207.395C609.708 207.673 603.118 207.699 596.529 207.445C589.915 206.964 583.45 206.002 577.034 204.508C570.643 203.04 564.674 200.407 559.174 196.634H559.125L559.051 196.66Z" fill="url(#paint3_linear_0_32)"/>
<path d="M832.006 157.34C836.638 157.138 840.081 158.505 842.41 161.416C844.936 164.303 846.324 167.594 846.447 171.341C846.571 175.088 845.506 178.608 843.202 181.924C841.122 185.013 837.802 186.634 833.145 186.836C827.324 187.317 821.478 187.57 815.632 187.57C810.009 187.292 804.386 187.039 798.788 186.76C799.803 206.407 800.224 226.054 800.001 245.752C800.051 265.425 798.887 285.046 796.459 304.542C796.137 308.795 794.056 311.985 790.266 314.137C786.452 316.289 782.711 316.821 778.996 315.732C774.834 314.669 771.812 312.416 769.954 308.998C768.369 305.833 767.873 302.111 768.418 297.858C770.598 278.843 771.44 259.855 770.945 240.967C770.697 222.054 769.954 203.015 768.715 183.899C759.426 182.785 749.988 181.671 740.452 180.583C730.89 179.241 721.452 178.127 712.188 177.266C708.026 176.937 705.029 174.81 703.146 170.911C701.016 166.759 700.396 162.936 701.239 159.416C702.279 155.137 704.484 152.201 707.853 150.53C711.197 148.656 714.813 147.896 718.727 148.226C726.827 149.137 734.878 150.175 742.953 151.34C751.054 152.251 759.228 153.163 767.551 154.049C767.279 152.808 767.081 150.96 766.957 148.479C766.09 126.097 765.074 103.969 763.984 82.0938C763.117 60.1933 763.34 38.0397 764.653 15.5569C764.975 11.5566 766.313 8.01202 768.641 4.92317C771.217 1.80901 774.537 0.188626 778.698 0.0113965C782.34 -0.140514 785.808 1.22668 789.102 4.08767C792.644 6.92333 794.23 10.3666 793.908 14.367C792.421 38.3435 792.124 62.1428 793.065 85.765C794.23 109.134 795.518 132.857 796.979 156.96C802.85 157.214 808.696 157.467 814.567 157.72C820.413 157.72 826.259 157.619 832.105 157.366H832.055L832.006 157.34Z" fill="url(#paint4_linear_0_32)"/>
<path d="M873.001 273.577C874.463 261.576 876.197 249.803 878.179 238.258C880.383 226.46 881.87 214.56 882.637 202.584C883.158 190.862 882.811 179.418 881.647 168.252C880.705 156.809 880.978 145.238 882.464 133.465C882.786 129.465 884.867 126.376 888.682 124.224C892.744 122.072 896.484 121.413 899.928 122.274C904.089 123.338 906.987 125.591 908.622 129.034C910.455 132.452 911.199 136.149 910.877 140.149C910.133 145.922 909.861 151.77 910.109 157.745C910.579 163.695 911.075 169.67 911.545 175.62C911.991 187.064 911.719 198.533 910.703 210.028C909.712 222.029 908.226 233.802 906.244 245.347C904.51 256.867 902.9 268.513 901.414 280.312C900.844 284.337 898.64 287.401 894.825 289.553C891.01 291.705 887.393 292.338 883.925 291.503C879.764 290.439 876.742 288.186 874.884 284.768C873.051 281.35 872.407 277.653 872.977 273.628H873.026L873.001 273.577ZM883.777 101.26C882.043 100.829 880.334 100.146 878.575 99.2344C876.841 98.0697 875.528 96.6013 874.735 94.9049C873.918 92.9554 873.249 91.2337 872.704 89.7653C872.159 88.2968 871.862 86.5752 871.788 84.5497C871.689 82.3217 871.961 80.0683 872.63 77.7897C873.422 73.2577 875.256 69.9409 878.079 67.8648C878.996 66.3204 880.284 65.1558 881.969 64.3456C884.57 62.4973 887.567 61.5099 891.01 61.358C894.404 60.9782 897.5 61.7124 900.25 63.586C901.513 64.5481 902.776 65.5862 904.015 66.8015C905.278 67.7636 906.294 69.0801 907.087 70.8018C907.607 72.017 908.176 73.3842 908.721 74.8527C909.514 76.2959 909.811 77.815 909.638 79.2834C909.465 81.0304 909.266 82.6761 909.093 84.1699C908.895 85.6637 908.35 87.0815 907.433 88.3474C906.294 90.1197 905.353 91.4363 904.659 92.2212C903.965 93.006 902.776 94.0441 901.117 95.3607C900.175 96.3987 898.763 97.2089 896.831 97.7912C891.828 100.981 887.517 102.171 883.802 101.31V101.26H883.777Z" fill="url(#paint5_linear_0_32)"/>
<path d="M956.53 267.02C956.109 256.335 956.406 245.474 957.447 234.46C958.636 221.219 959.825 208.078 961.038 195.09C962.227 181.848 962.426 168.506 961.658 155.087C961.46 150.352 962.772 146.706 965.621 144.099C968.47 141.491 971.665 140.098 975.332 139.946C978.998 139.795 982.441 140.909 985.686 143.263C988.956 145.618 990.665 149.162 990.838 153.897C1000.3 152.758 1009.29 152.023 1017.79 151.669C1027.52 151.517 1035.92 154.049 1042.93 159.214C1049.94 164.404 1055.37 171.544 1059.13 180.608C1062.4 188.938 1064.43 197.571 1065.28 206.509C1066.09 215.421 1066.84 224.383 1067.43 233.321C1068.17 245.98 1069.04 258.665 1070.01 271.349C1071 283.78 1071.72 296.313 1072.21 308.998C1072.38 313.96 1070.95 317.631 1067.88 320.011C1065.08 322.619 1061.83 324.011 1058.17 324.163C1054.77 324.29 1051.4 323.176 1048.16 320.847C1045.16 318.72 1043.55 315.201 1043.38 310.188C1042.91 298.263 1042.19 286.565 1041.27 275.147C1040.58 263.728 1039.76 252.031 1038.8 240.131C1038.05 233.701 1037.56 227.092 1037.28 220.383C1037.26 213.421 1036.52 207.091 1035.08 201.42C1034.21 197.976 1033.35 195.014 1032.55 192.558C1031.71 189.874 1030.27 187.292 1028.22 184.887C1027.7 183.925 1026.56 183.089 1024.82 182.405C1023.34 181.722 1022 181.393 1020.76 181.443C1017.12 181.595 1013.73 181.975 1010.56 182.608C1007.41 183.216 1004.14 184.127 1000.8 185.266C999.36 185.823 997.898 186.38 996.486 186.937C995.049 187.494 993.712 188.178 992.547 188.963C990.467 198.027 988.98 206.661 988.064 214.94C987.42 222.94 986.751 231.042 986.082 239.296C985.587 245.296 985.339 251.424 985.339 257.652C985.587 263.627 985.562 269.602 985.314 275.577C985.314 281.552 984.819 287.553 983.853 293.579C983.11 299.604 981.524 305.377 979.047 310.972C977.041 315.302 974.192 317.758 970.575 318.441C966.959 319.328 963.54 318.847 960.295 316.998C957.298 315.378 954.87 312.745 953.037 309.074C951.427 305.402 951.526 301.402 953.285 297.098C955.292 292.541 956.332 287.654 956.381 282.413C956.431 277.172 956.456 272.083 956.505 267.096L956.53 267.02Z" fill="url(#paint6_linear_0_32)"/>
<path d="M1113.9 345.785C1119.45 350.798 1125.82 354.14 1132.95 355.837C1140.08 357.786 1147.19 358.242 1154.2 357.204C1161.21 356.166 1167.85 353.761 1174.02 350.039C1180.21 346.292 1185.27 341.228 1189.13 334.848C1197.4 321.783 1202.43 307.529 1204.24 292.009C1206.32 276.717 1206.82 261.374 1205.73 246.005C1194.13 248.487 1182.1 249.322 1169.66 248.613C1157.45 248.107 1145.78 245.98 1134.68 242.208C1128.99 240.207 1123.54 237.802 1118.33 235.017C1113.36 231.979 1109.27 227.675 1106.12 222.054C1100.62 212.56 1098 201.977 1098.29 190.254C1098.34 179.038 1099.76 168.151 1102.48 157.568C1105.48 146.757 1108.82 135.997 1112.56 125.388C1114.57 120.325 1116.65 115.008 1118.88 109.438C1121.33 103.589 1124.55 98.3735 1128.49 93.7149C1132.45 88.8285 1137.06 85.0307 1142.29 82.2963C1147.54 79.5873 1153.19 77.8656 1159.28 77.106C1158.17 73.6627 1158.04 70.422 1158.91 67.4091C1159.75 64.1177 1161.71 61.4339 1164.81 59.3072C1167.88 57.2058 1171.52 56.5475 1175.7 57.3577C1180.14 58.1679 1183.24 60.2946 1185.09 63.6873C1186.16 65.89 1187.1 68.0927 1187.92 70.3207C1188.98 72.5234 1189.92 74.7261 1190.74 76.9541C1196.14 90.1957 1201.05 103.564 1205.48 117.084C1210.16 130.604 1214.6 144.225 1218.81 157.998C1223.83 174.228 1227.77 190.761 1230.62 207.572C1233.47 224.409 1235.01 241.499 1235.21 258.968C1235.35 268.665 1234.88 278.666 1233.82 288.92C1233 299.174 1231.19 309.099 1228.39 318.644C1225.59 328.24 1221.8 337.354 1217.05 346.013C1212.27 354.925 1206 362.647 1198.22 369.205C1190.91 375.484 1182.69 380.066 1173.55 382.927C1164.66 386.016 1155.47 387.51 1145.95 387.409C1136.69 387.282 1127.48 385.535 1118.33 382.193C1109.44 378.826 1101.44 373.914 1094.38 367.483C1090.86 364.394 1089.23 360.824 1089.58 356.824C1089.92 353.077 1091.38 349.786 1093.93 346.925C1096.26 344.342 1099.24 342.722 1102.9 342.089C1106.77 341.431 1110.48 342.646 1114 345.735L1113.9 345.785ZM1149.35 215.421C1157.94 217.32 1166.76 218.56 1175.8 219.193C1185.09 219.573 1193.94 218.585 1202.38 216.231C1200.43 203.622 1197.75 191.495 1194.38 179.95C1191.24 168.354 1187.74 156.682 1183.85 144.884C1181.65 137.997 1179.3 131.262 1176.84 124.629C1174.61 117.995 1172.31 111.387 1169.83 104.728C1169.14 105.26 1168.3 105.665 1167.31 105.969C1166.34 105.994 1165.25 106.172 1164.04 106.475C1156.75 106.779 1151.28 110.349 1147.64 117.236C1145.14 121.591 1143.11 126.148 1141.59 130.933C1141.15 132.199 1140.73 133.465 1140.28 134.705C1139.81 135.718 1139.39 136.883 1138.94 138.123C1135.65 147.213 1132.83 156.074 1130.47 164.632C1128.37 172.936 1127.2 181.064 1127.03 189.064L1127.3 195.774C1127.6 197.495 1127.9 198.862 1128.19 199.825C1128.76 202.027 1129.06 203.394 1129.09 203.875C1129.36 204.357 1130.13 205.597 1131.41 207.521C1132.92 208.711 1134.31 209.648 1135.55 210.332C1136.81 211.041 1137.53 211.496 1137.8 211.724C1139.79 212.382 1141.62 213.066 1143.38 213.75C1145.36 214.408 1147.32 214.965 1149.3 215.37H1149.35V215.421Z" fill="url(#paint7_linear_0_32)"/>
</g>
<defs>
<linearGradient id="paint0_linear_0_32" x1="617.616" y1="388.522" x2="617.616" y2="167.466" gradientUnits="userSpaceOnUse">
<stop stop-color="#302503"/>
<stop offset="1" stop-color="#5D5E47"/>
</linearGradient>
<linearGradient id="paint1_linear_0_32" x1="617.616" y1="388.522" x2="617.616" y2="167.466" gradientUnits="userSpaceOnUse">
<stop stop-color="#302503"/>
<stop offset="1" stop-color="#5D5E47"/>
</linearGradient>
<linearGradient id="paint2_linear_0_32" x1="617.616" y1="388.522" x2="617.616" y2="167.466" gradientUnits="userSpaceOnUse">
<stop stop-color="#302503"/>
<stop offset="1" stop-color="#5D5E47"/>
</linearGradient>
<linearGradient id="paint3_linear_0_32" x1="617.616" y1="388.522" x2="617.616" y2="167.466" gradientUnits="userSpaceOnUse">
<stop stop-color="#302503"/>
<stop offset="1" stop-color="#5D5E47"/>
</linearGradient>
<linearGradient id="paint4_linear_0_32" x1="617.616" y1="388.522" x2="617.616" y2="167.466" gradientUnits="userSpaceOnUse">
<stop stop-color="#302503"/>
<stop offset="1" stop-color="#5D5E47"/>
</linearGradient>
<linearGradient id="paint5_linear_0_32" x1="617.616" y1="388.522" x2="617.616" y2="167.466" gradientUnits="userSpaceOnUse">
<stop stop-color="#302503"/>
<stop offset="1" stop-color="#5D5E47"/>
</linearGradient>
<linearGradient id="paint6_linear_0_32" x1="617.616" y1="388.522" x2="617.616" y2="167.466" gradientUnits="userSpaceOnUse">
<stop stop-color="#302503"/>
<stop offset="1" stop-color="#5D5E47"/>
</linearGradient>
<linearGradient id="paint7_linear_0_32" x1="617.616" y1="388.522" x2="617.616" y2="167.466" gradientUnits="userSpaceOnUse">
<stop stop-color="#302503"/>
<stop offset="1" stop-color="#5D5E47"/>
</linearGradient>
</defs>
</svg>
