<svg preserveAspectRatio="none" width="100%" height="100%" overflow="visible" style="display: block;" viewBox="0 0 102.077 105.038" fill="none" xmlns="http://www.w3.org/2000/svg">
<g id="Vector" style="mix-blend-mode:overlay">
<path d="M0.151387 104.697L8.39024 101.037C9.58982 100.505 11.0678 100.505 12.2673 101.037L18.5676 103.836C19.7672 104.369 21.2452 104.369 22.4448 103.836L28.7451 101.037C29.9446 100.505 31.4226 100.505 32.6222 101.037L38.9225 103.836C40.122 104.369 41.6 104.369 42.7996 103.836L49.0999 101.037C50.2995 100.505 51.7774 100.505 52.977 101.037L59.2773 103.836C60.4769 104.369 61.9548 104.369 63.1544 103.836L69.4547 101.037C70.6543 100.505 72.1322 100.505 73.3318 101.037L79.6321 103.836C80.8317 104.369 82.3096 104.369 83.5092 103.836L89.8095 101.037C91.0091 100.505 92.487 100.505 93.6866 101.037L101.925 104.697M0.151387 93.5568L8.39024 89.8969C9.58982 89.364 11.0678 89.364 12.2673 89.8969L18.5676 92.6957C19.7672 93.2286 21.2452 93.2286 22.4448 92.6957L28.7451 89.8969C29.9446 89.364 31.4226 89.364 32.6222 89.8969L38.9225 92.6957C40.122 93.2286 41.6 93.2286 42.7996 92.6957L49.0999 89.8969C50.2995 89.364 51.7774 89.364 52.977 89.8969L59.2773 92.6957C60.4769 93.2286 61.9548 93.2286 63.1544 92.6957L69.4547 89.8969C70.6543 89.364 72.1322 89.364 73.3318 89.8969L79.6321 92.6957C80.8317 93.2286 82.3096 93.2286 83.5092 92.6957L89.8095 89.8969C91.0091 89.364 92.487 89.364 93.6866 89.8969L101.925 93.5568M0.151387 82.4163L8.39024 78.7563C9.58982 78.2234 11.0678 78.2234 12.2673 78.7563L18.5676 81.5551C19.7672 82.088 21.2452 82.088 22.4448 81.5551L28.7451 78.7563C29.9446 78.2234 31.4226 78.2234 32.6222 78.7563L38.9225 81.5551C40.122 82.088 41.6 82.088 42.7996 81.5551L49.0999 78.7563C50.2995 78.2234 51.7774 78.2234 52.977 78.7563L59.2773 81.5551C60.4769 82.088 61.9548 82.088 63.1544 81.5551L69.4547 78.7563C70.6543 78.2234 72.1322 78.2234 73.3318 78.7563L79.6321 81.5551C80.8317 82.088 82.3096 82.088 83.5092 81.5551L89.8095 78.7563C91.0091 78.2234 92.487 78.2234 93.6866 78.7563L101.925 82.4163M0.151387 71.2758L8.39024 67.6158C9.58982 67.0829 11.0678 67.0829 12.2673 67.6158L18.5676 70.4146C19.7672 70.9475 21.2452 70.9475 22.4448 70.4146L28.7451 67.6158C29.9446 67.0829 31.4226 67.0829 32.6222 67.6158L38.9225 70.4146C40.122 70.9475 41.6 70.9475 42.7996 70.4146L49.0999 67.6158C50.2995 67.0829 51.7774 67.0829 52.977 67.6158L59.2773 70.4146C60.4769 70.9475 61.9548 70.9475 63.1544 70.4146L69.4547 67.6158C70.6543 67.0829 72.1322 67.0829 73.3318 67.6158L79.6321 70.4146C80.8317 70.9475 82.3096 70.9475 83.5092 70.4146L89.8095 67.6158C91.0091 67.0829 92.487 67.0829 93.6866 67.6158L101.925 71.2758M0.151387 60.1352L8.39024 56.4753C9.58982 55.9424 11.0678 55.9424 12.2673 56.4753L18.5676 59.2741C19.7672 59.8069 21.2452 59.8069 22.4448 59.2741L28.7451 56.4753C29.9446 55.9424 31.4226 55.9424 32.6222 56.4753L38.9225 59.2741C40.122 59.8069 41.6 59.8069 42.7996 59.2741L49.0999 56.4753C50.2995 55.9424 51.7774 55.9424 52.977 56.4753L59.2773 59.2741C60.4769 59.8069 61.9548 59.8069 63.1544 59.2741L69.4547 56.4753C70.6543 55.9424 72.1322 55.9424 73.3318 56.4753L79.6321 59.274C80.8317 59.8069 82.3096 59.8069 83.5092 59.274L89.8095 56.4753C91.0091 55.9424 92.487 55.9424 93.6866 56.4753L101.925 60.1352M0.151387 48.9947L8.39024 45.3347C9.58982 44.8018 11.0678 44.8018 12.2673 45.3347L18.5676 48.1335C19.7672 48.6664 21.2452 48.6664 22.4448 48.1335L28.7451 45.3347C29.9446 44.8018 31.4226 44.8018 32.6222 45.3347L38.9225 48.1335C40.122 48.6664 41.6 48.6664 42.7996 48.1335L49.0999 45.3347C50.2995 44.8018 51.7774 44.8018 52.977 45.3347L59.2773 48.1335C60.4769 48.6664 61.9548 48.6664 63.1544 48.1335L69.4547 45.3347C70.6543 44.8018 72.1322 44.8018 73.3318 45.3347L79.6321 48.1335C80.8317 48.6664 82.3096 48.6664 83.5092 48.1335L89.8095 45.3347C91.0091 44.8018 92.487 44.8018 93.6866 45.3347L101.925 48.9947M0.151387 37.8541L8.39024 34.1942C9.58982 33.6613 11.0678 33.6613 12.2673 34.1942L18.5676 36.993C19.7672 37.5259 21.2452 37.5259 22.4448 36.993L28.7451 34.1942C29.9446 33.6613 31.4226 33.6613 32.6222 34.1942L38.9225 36.993C40.122 37.5259 41.6 37.5259 42.7996 36.993L49.0999 34.1942C50.2995 33.6613 51.7774 33.6613 52.977 34.1942L59.2773 36.993C60.4769 37.5259 61.9548 37.5259 63.1544 36.993L69.4547 34.1942C70.6543 33.6613 72.1322 33.6613 73.3318 34.1942L79.6321 36.993C80.8317 37.5259 82.3096 37.5259 83.5092 36.993L89.8095 34.1942C91.0091 33.6613 92.487 33.6613 93.6866 34.1942L101.925 37.8541M0.151387 26.7136L8.39024 23.0536C9.58982 22.5208 11.0678 22.5208 12.2673 23.0536L18.5676 25.8524C19.7672 26.3853 21.2452 26.3853 22.4448 25.8524L28.7451 23.0536C29.9446 22.5208 31.4226 22.5208 32.6222 23.0536L38.9225 25.8524C40.122 26.3853 41.6 26.3853 42.7996 25.8524L49.0999 23.0536C50.2995 22.5208 51.7774 22.5208 52.977 23.0536L59.2773 25.8524C60.4769 26.3853 61.9548 26.3853 63.1544 25.8524L69.4547 23.0536C70.6543 22.5208 72.1322 22.5208 73.3318 23.0536L79.6321 25.8524C80.8317 26.3853 82.3096 26.3853 83.5092 25.8524L89.8095 23.0536C91.0091 22.5208 92.487 22.5208 93.6866 23.0536L101.925 26.7136M0.151387 15.5731L8.39024 11.9131C9.58982 11.3802 11.0678 11.3802 12.2673 11.9131L18.5676 14.7119C19.7672 15.2448 21.2452 15.2448 22.4448 14.7119L28.7451 11.9131C29.9446 11.3802 31.4226 11.3802 32.6222 11.9131L38.9225 14.7119C40.122 15.2448 41.6 15.2448 42.7996 14.7119L49.0999 11.9131C50.2995 11.3802 51.7774 11.3802 52.977 11.9131L59.2773 14.7119C60.4769 15.2448 61.9548 15.2448 63.1544 14.7119L69.4547 11.9131C70.6543 11.3802 72.1322 11.3802 73.3318 11.9131L79.6321 14.7119C80.8317 15.2448 82.3096 15.2448 83.5092 14.7119L89.8095 11.9131C91.0091 11.3802 92.487 11.3802 93.6866 11.9131L101.925 15.5731M0.151387 4.43252L8.39024 0.772565C9.58982 0.239673 11.0678 0.239673 12.2673 0.772565L18.5676 3.57136C19.7672 4.10425 21.2452 4.10425 22.4448 3.57136L28.7451 0.772565C29.9446 0.239673 31.4226 0.239673 32.6222 0.772564L38.9225 3.57136C40.122 4.10425 41.6 4.10425 42.7996 3.57136L49.0999 0.772565C50.2995 0.239673 51.7774 0.239673 52.977 0.772564L59.2773 3.57136C60.4769 4.10425 61.9548 4.10425 63.1544 3.57136L69.4547 0.772565C70.6543 0.239673 72.1322 0.239673 73.3318 0.772565L79.6321 3.57136C80.8317 4.10425 82.3096 4.10425 83.5092 3.57136L89.8095 0.772565C91.0091 0.239673 92.487 0.239673 93.6866 0.772565L101.925 4.43252" stroke="var(--stroke-0, white)" stroke-opacity="0.14" stroke-width="0.745792"/>
</g>
</svg>
