<svg width="100%" height="100%" viewBox="12 12 274 274" fill="none" xmlns="http://www.w3.org/2000/svg">
<g id="Union">
<path d="M59.2414 238.759V267.103H30.8966V238.759H59.2414Z" fill="#0e0d07"/>
<path fill-rule="evenodd" clip-rule="evenodd" d="M78.1379 286H12V219.862H78.1379V286ZM21.9207 276.079H68.2172V229.783H21.9207V276.079Z" fill="#0e0d07"/>
<path d="M115.931 286H87.5862V276.552H106.483V267.103H115.931V286Z" fill="#0e0d07"/>
<path d="M134.828 276.552H144.276V286H125.379V267.103H134.828V276.552Z" fill="#0e0d07"/>
<path d="M172.621 286H163.172V276.552H172.621V286Z" fill="#0e0d07"/>
<path d="M191.517 286H182.069V267.103H191.517V286Z" fill="#0e0d07"/>
<path d="M229.31 229.31H219.862V219.862H229.31V229.31Z" fill="#0e0d07"/>
<path fill-rule="evenodd" clip-rule="evenodd" d="M267.103 134.828H286V153.724H276.552V182.069H267.103V210.414H286V219.862H276.552V229.31H267.103V219.862H257.655V238.759H248.207V248.207H257.655V257.655H238.759V267.103H229.31V248.207H219.862V257.655H210.414V276.552H229.31V286H200.966V257.655H172.621V238.759H182.069V248.207H200.966V229.31H191.517V219.862H182.069V210.414H172.621V219.862H163.172V238.759H125.379V229.31H115.931V210.414H125.379V219.862H134.828V229.31H144.276V219.862H153.724V210.414H163.172V200.966H172.621V191.517H153.724V210.414H134.828V200.966H115.931V182.069H106.483V172.621H125.379V163.172H106.483V153.724H115.931V144.276H125.379V153.724H134.828V182.069H125.379V191.517H134.828V182.069H144.276V153.724H153.724V163.172H163.172V153.724H153.724V144.276H163.172V134.828H172.621V172.621H182.069V200.966H191.517V191.517H200.966V200.966H219.862V182.069H229.31V163.172H238.759V153.724H248.207V163.172H257.655V172.621H267.103V153.724H257.655V134.828H248.207V125.379H267.103V134.828ZM210.414 238.759H238.759V210.414H210.414V238.759ZM238.759 191.517H229.31V200.966H238.759V191.517H248.207V200.966H257.655V182.069H248.207V172.621H238.759V191.517ZM153.724 182.069H163.172V172.621H153.724V182.069Z" fill="#0e0d07"/>
<path d="M257.655 286H248.207V276.552H238.759V267.103H257.655V286Z" fill="#0e0d07"/>
<path d="M276.552 286H267.103V267.103H276.552V286Z" fill="#0e0d07"/>
<path d="M163.172 276.552H153.724V267.103H163.172V276.552Z" fill="#0e0d07"/>
<path d="M115.931 248.207H125.379V267.103H115.931V257.655H106.483V267.103H87.5862V248.207H97.0345V238.759H106.483V229.31H115.931V248.207Z" fill="#0e0d07"/>
<path d="M144.276 267.103H134.828V248.207H144.276V267.103Z" fill="#0e0d07"/>
<path d="M172.621 267.103H163.172V257.655H172.621V267.103Z" fill="#0e0d07"/>
<path d="M267.103 267.103H257.655V257.655H267.103V267.103Z" fill="#0e0d07"/>
<path d="M286 267.103H276.552V257.655H286V267.103Z" fill="#0e0d07"/>
<path d="M276.552 257.655H267.103V248.207H276.552V257.655Z" fill="#0e0d07"/>
<path d="M267.103 248.207H257.655V238.759H267.103V248.207Z" fill="#0e0d07"/>
<path d="M286 248.207H276.552V238.759H286V248.207Z" fill="#0e0d07"/>
<path d="M97.0345 219.862H106.483V229.31H97.0345V238.759H87.5862V210.414H97.0345V219.862Z" fill="#0e0d07"/>
<path d="M191.517 238.759H182.069V229.31H191.517V238.759Z" fill="#0e0d07"/>
<path d="M182.069 229.31H172.621V219.862H182.069V229.31Z" fill="#0e0d07"/>
<path d="M40.3448 200.966H59.2414V210.414H21.4483V200.966H30.8966V191.517H40.3448V200.966Z" fill="#0e0d07"/>
<path d="M106.483 200.966H87.5862V210.414H68.6897V200.966H78.1379V191.517H97.0345V182.069H106.483V200.966Z" fill="#0e0d07"/>
<path d="M115.931 210.414H106.483V200.966H115.931V210.414Z" fill="#0e0d07"/>
<path d="M21.4483 191.517H12V182.069H21.4483V191.517Z" fill="#0e0d07"/>
<path d="M78.1379 191.517H68.6897V182.069H78.1379V191.517Z" fill="#0e0d07"/>
<path d="M59.2414 172.621H68.6897V182.069H40.3448V163.172H59.2414V172.621Z" fill="#0e0d07"/>
<path d="M21.4483 172.621H12V153.724H21.4483V172.621Z" fill="#0e0d07"/>
<path d="M78.1379 172.621H68.6897V163.172H78.1379V172.621Z" fill="#0e0d07"/>
<path d="M219.862 172.621H210.414V163.172H219.862V172.621Z" fill="#0e0d07"/>
<path d="M87.5862 125.379H97.0345V134.828H87.5862V144.276H97.0345V153.724H87.5862V163.172H78.1379V153.724H59.2414V144.276H49.7931V153.724H40.3448V134.828H68.6897V144.276H78.1379V134.828H68.6897V125.379H78.1379V115.931H87.5862V125.379Z" fill="#0e0d07"/>
<path d="M200.966 134.828H210.414V144.276H200.966V163.172H182.069V144.276H191.517V125.379H200.966V134.828Z" fill="#0e0d07"/>
<path d="M30.8966 153.724H21.4483V144.276H30.8966V153.724Z" fill="#0e0d07"/>
<path d="M144.276 153.724H134.828V144.276H144.276V153.724Z" fill="#0e0d07"/>
<path d="M238.759 153.724H229.31V144.276H238.759V153.724Z" fill="#0e0d07"/>
<path d="M115.931 144.276H97.0345V134.828H106.483V106.483H115.931V144.276Z" fill="#0e0d07"/>
<path d="M134.828 144.276H125.379V125.379H134.828V144.276Z" fill="#0e0d07"/>
<path d="M163.172 134.828H153.724V144.276H144.276V125.379H163.172V134.828Z" fill="#0e0d07"/>
<path d="M229.31 144.276H219.862V134.828H229.31V144.276Z" fill="#0e0d07"/>
<path d="M21.4483 134.828H12V125.379H21.4483V134.828Z" fill="#0e0d07"/>
<path d="M40.3448 134.828H30.8966V125.379H40.3448V134.828Z" fill="#0e0d07"/>
<path d="M182.069 134.828H172.621V125.379H182.069V134.828Z" fill="#0e0d07"/>
<path d="M238.759 134.828H229.31V125.379H238.759V134.828Z" fill="#0e0d07"/>
<path d="M59.2414 125.379H49.7931V115.931H59.2414V125.379Z" fill="#0e0d07"/>
<path d="M182.069 68.6897H172.621V78.1379H182.069V68.6897H191.517V78.1379H200.966V87.5862H210.414V106.483H219.862V87.5862H229.31V97.0345H248.207V115.931H238.759V106.483H219.862V115.931H210.414V125.379H200.966V106.483H191.517V125.379H182.069V115.931H172.621V125.379H163.172V106.483H182.069V97.0345H172.621V87.5862H163.172V106.483H144.276V115.931H134.828V106.483H115.931V97.0345H134.828V87.5862H144.276V97.0345H153.724V78.1379H163.172V68.6897H153.724V59.2414H163.172V49.7931H172.621V40.3448H182.069V68.6897Z" fill="#0e0d07"/>
<path d="M229.31 125.379H219.862V115.931H229.31V125.379Z" fill="#0e0d07"/>
<path d="M286 125.379H276.552V115.931H286V125.379Z" fill="#0e0d07"/>
<path d="M21.4483 115.931H12V87.5862H21.4483V115.931Z" fill="#0e0d07"/>
<path d="M49.7931 97.0345H59.2414V87.5862H87.5862V106.483H78.1379V97.0345H68.6897V106.483H49.7931V115.931H40.3448V106.483H30.8966V87.5862H49.7931V97.0345Z" fill="#0e0d07"/>
<path d="M78.1379 115.931H68.6897V106.483H78.1379V115.931Z" fill="#0e0d07"/>
<path d="M97.0345 115.931H87.5862V106.483H97.0345V115.931Z" fill="#0e0d07"/>
<path d="M276.552 115.931H257.655V106.483H276.552V115.931Z" fill="#0e0d07"/>
<path d="M286 106.483H276.552V97.0345H267.103V87.5862H286V106.483Z" fill="#0e0d07"/>
<path d="M257.655 97.0345H248.207V87.5862H257.655V97.0345Z" fill="#0e0d07"/>
<path d="M97.0345 87.5862H87.5862V68.6897H97.0345V87.5862Z" fill="#0e0d07"/>
<path d="M115.931 87.5862H106.483V68.6897H115.931V87.5862Z" fill="#0e0d07"/>
<path d="M59.2414 59.2414H30.8966V30.8966H59.2414V59.2414Z" fill="#0e0d07"/>
<path fill-rule="evenodd" clip-rule="evenodd" d="M78.1379 78.1379H12V12H78.1379V78.1379ZM21.9207 68.2172H68.2172V21.9207H21.9207V68.2172Z" fill="#0e0d07"/>
<path d="M134.828 78.1379H125.379V68.6897H134.828V78.1379Z" fill="#0e0d07"/>
<path d="M153.724 78.1379H144.276V68.6897H153.724V78.1379Z" fill="#0e0d07"/>
<path d="M210.414 78.1379H200.966V68.6897H210.414V78.1379Z" fill="#0e0d07"/>
<path d="M267.103 59.2414H238.759V30.8966H267.103V59.2414Z" fill="#0e0d07"/>
<path fill-rule="evenodd" clip-rule="evenodd" d="M286 78.1379H219.862V12H286V78.1379ZM229.783 68.2172H276.079V21.9207H229.783V68.2172Z" fill="#0e0d07"/>
<path d="M125.379 68.6897H115.931V59.2414H125.379V68.6897Z" fill="#0e0d07"/>
<path d="M144.276 68.6897H134.828V59.2414H144.276V68.6897Z" fill="#0e0d07"/>
<path d="M200.966 68.6897H191.517V49.7931H200.966V68.6897Z" fill="#0e0d07"/>
<path d="M115.931 59.2414H97.0345V49.7931H115.931V59.2414Z" fill="#0e0d07"/>
<path d="M163.172 49.7931H153.724V59.2414H144.276V40.3448H163.172V49.7931Z" fill="#0e0d07"/>
<path d="M97.0345 49.7931H87.5862V40.3448H97.0345V49.7931Z" fill="#0e0d07"/>
<path d="M134.828 49.7931H115.931V40.3448H134.828V49.7931Z" fill="#0e0d07"/>
<path d="M106.483 40.3448H97.0345V30.8966H106.483V40.3448Z" fill="#0e0d07"/>
<path d="M172.621 40.3448H163.172V21.4483H172.621V40.3448Z" fill="#0e0d07"/>
<path d="M210.414 40.3448H191.517V30.8966H210.414V40.3448Z" fill="#0e0d07"/>
<path d="M97.0345 30.8966H87.5862V12H97.0345V30.8966Z" fill="#0e0d07"/>
<path d="M163.172 21.4483H144.276V30.8966H115.931V21.4483H134.828V12H163.172V21.4483Z" fill="#0e0d07"/>
<path d="M115.931 21.4483H106.483V12H115.931V21.4483Z" fill="#0e0d07"/>
<path d="M210.414 21.4483H191.517V12H210.414V21.4483Z" fill="#0e0d07"/>
</g>
</svg>
